<svg width="240" height="244" viewBox="0 0 240 244" fill="none" xmlns="http://www.w3.org/2000/svg">
<path d="M85.1127 201.835C84.0199 201.618 82.7269 200.887 81.3803 199.114C77.2093 193.62 73.8391 180.015 73.1857 166.032C72.8011 157.78 73.2979 149.719 74.6685 142.069C76.2494 133.222 78.9648 125.186 82.7371 118.179L86.3323 120.177C72.1533 146.503 77.2216 181.607 82.938 193.704C84.3367 196.665 85.4499 197.604 85.8183 197.751C86.0454 197.569 87.0995 196.514 87.8997 191.886C92.0926 167.65 98.2725 152.554 106.265 147.011C109.351 144.87 112.697 144.138 116.207 144.836L115.44 148.9C113.013 148.418 110.771 148.918 108.59 150.433C103.738 153.796 96.9101 163.848 91.9303 192.627C90.9544 198.268 89.3172 201.185 86.7786 201.805C86.3066 201.917 85.7428 201.963 85.1147 201.838L85.1127 201.835Z" fill="url(#paint0_linear_1_100)"/>
<path d="M124.176 209.502C123.548 209.377 123.039 209.117 122.642 208.83C120.513 207.284 120.055 203.949 121.202 198.342C127.05 169.738 124.373 157.796 121.095 152.815C119.623 150.577 117.728 149.251 115.298 148.768L116.065 144.704C119.577 145.402 122.413 147.363 124.498 150.531C129.896 158.736 130.134 175.111 125.21 199.199C124.27 203.798 124.861 205.183 125.008 205.437C125.403 205.444 126.78 204.998 129.152 202.787C138.855 193.757 156.324 163.133 152.75 133.275L156.812 132.799C157.763 140.742 157.358 149.241 155.607 158.054C154.09 165.675 151.622 173.344 148.265 180.852C142.575 193.576 134.499 204.907 128.629 208.402C126.738 209.531 125.274 209.717 124.179 209.5L124.176 209.502Z" fill="url(#paint1_linear_1_100)"/>
<path d="M145.099 140.502L143.51 136.68C159.891 129.773 171.359 117.871 174.968 104.029C177.655 93.7373 175.63 83.4355 169.27 75.0272C161.406 64.6285 144.408 65.6423 131.535 68.3273L130.691 64.2714C139.355 62.4671 147.019 61.9495 153.471 62.732C161.97 63.7634 168.38 67.0584 172.511 72.5213C179.661 81.9744 181.939 93.5461 178.922 105.105C174.983 120.195 162.655 133.096 145.099 140.502Z" fill="url(#paint2_linear_1_100)"/>
<path d="M83.4516 87.7901L79.4503 68.6504L63.3652 57.7529L82.251 53.8087L92.9254 37.5871L96.9267 56.7268L113.012 67.6243L94.126 71.5685L83.4516 87.7901ZM73.7411 59.8159L83.1039 66.1577L85.4313 77.2994L91.6434 67.8556L102.636 65.5612L93.2731 59.2195L90.9457 48.0778L84.7336 57.5216L73.7411 59.8159Z" fill="url(#paint3_linear_1_100)"/>
<path d="M135.479 71.8804C128.418 66.5261 121.733 62.5697 115.604 60.1258C107.73 56.9799 100.977 56.4332 95.5373 58.4927L94.0862 54.6352C108.102 49.324 125.659 59.2929 137.92 68.5924L135.479 71.8804Z" fill="url(#paint4_linear_1_100)"/>
<path d="M91.3049 130.009C81.3623 120.065 75.0719 108.559 73.121 96.7402C71.2606 85.4637 73.5845 74.655 79.6716 66.3102L82.9694 68.7818C77.5456 76.2225 75.4813 85.9177 77.1584 96.0798C78.9658 107.03 84.8495 117.748 94.1742 127.071L91.3049 130.009Z" fill="url(#paint5_linear_1_100)"/>
<path d="M141.838 20.6821L137.808 19.8828L134.431 37.7589L138.461 38.5582L141.838 20.6821Z" fill="url(#paint6_linear_1_100)"/>
<path d="M106.541 206.336L102.511 205.536L99.1337 223.413L103.164 224.212L106.541 206.336Z" fill="url(#paint7_linear_1_100)"/>
<path d="M38.3284 103.837L20.7153 100.349L19.9509 104.389L37.5639 107.876L38.3284 103.837Z" fill="url(#paint8_linear_1_100)"/>
<path d="M221.021 139.706L203.408 136.219L202.643 140.258L220.256 143.746L221.021 139.706Z" fill="url(#paint9_linear_1_100)"/>
<path d="M49.6853 168.18L34.8415 178.366L37.1355 181.82L51.9793 171.634L49.6853 168.18Z" fill="url(#paint10_linear_1_100)"/>
<path d="M203.828 62.2696L188.984 72.4553L191.278 75.9096L206.122 65.7239L203.828 62.2696Z" fill="url(#paint11_linear_1_100)"/>
<path d="M169.25 191.66L165.881 193.967L175.934 209.075L179.303 206.768L169.25 191.66Z" fill="url(#paint12_linear_1_100)"/>
<path d="M65.0287 35.0184L61.6598 37.3254L71.7135 52.434L75.0823 50.127L65.0287 35.0184Z" fill="url(#paint13_linear_1_100)"/>
<path d="M104.672 54.4332C104.327 52.752 105.397 51.1147 107.055 50.7777C108.714 50.4381 110.338 51.5278 110.683 53.209C111.027 54.8929 109.96 56.5281 108.299 56.8671C107.892 56.9497 107.486 56.948 107.104 56.8721C105.921 56.637 104.932 55.7051 104.672 54.4332ZM102.6 44.2841C102.255 42.6028 103.323 40.9651 104.984 40.626C106.643 40.2865 108.266 41.3787 108.611 43.0599C108.953 44.7407 107.886 46.3785 106.227 46.718C105.82 46.8006 105.415 46.7964 105.03 46.72C103.85 46.4853 102.858 45.5555 102.6 44.2841ZM100.525 34.1345C100.184 32.4512 101.251 30.816 102.91 30.4764C104.571 30.1374 106.192 31.2265 106.536 32.9103C106.881 34.5916 105.814 36.2294 104.153 36.5659C103.746 36.6485 103.34 36.6468 102.958 36.5709C101.775 36.3357 100.786 35.4038 100.525 34.1345Z" fill="url(#paint14_linear_1_100)"/>
<path d="M62.5646 86.2477C61.1495 85.2992 60.7583 83.3767 61.6853 81.9525C62.6147 80.5289 64.5111 80.1409 65.9267 81.0869C67.3393 82.035 67.7309 83.955 66.806 85.3821C66.1037 86.4567 64.8523 86.9413 63.6691 86.7063C63.2856 86.6301 62.9089 86.4764 62.5646 86.2477ZM54.0321 80.5295C52.6195 79.5815 52.2254 77.661 53.1553 76.2348C54.0848 74.8112 55.9807 74.4257 57.3938 75.3713C58.8089 76.3199 59.2005 78.2398 58.2731 79.6665C57.5733 80.7416 56.3194 81.2256 55.1387 80.9911C54.7527 80.9144 54.3785 80.7613 54.0321 80.5295ZM45.5017 74.8144C44.0891 73.8663 43.6954 71.9433 44.6224 70.5192C45.5518 69.0955 47.4482 68.7075 48.8638 69.6536C50.2764 70.6017 50.6701 72.5246 49.7431 73.9488C49.0409 75.0234 47.7894 75.5079 46.6062 75.2729C46.2227 75.1967 45.8481 75.0461 45.5017 74.8144Z" fill="url(#paint15_linear_1_100)"/>
<path d="M193.892 174.361C192.476 173.412 192.085 171.492 193.012 170.068C193.939 168.642 195.838 168.257 197.251 169.202C198.666 170.151 199.057 172.071 198.13 173.497C197.43 174.573 196.176 175.057 194.996 174.822C194.612 174.746 194.235 174.592 193.892 174.361ZM185.359 168.645C183.946 167.697 183.552 165.777 184.479 164.35C185.409 162.927 187.308 162.539 188.721 163.485C190.133 164.433 190.527 166.356 189.6 167.78C188.898 168.854 187.646 169.341 186.463 169.106C186.079 169.03 185.705 168.877 185.359 168.645ZM176.828 162.93C175.413 161.982 175.022 160.059 175.949 158.635C176.878 157.211 178.775 156.823 180.19 157.769C181.603 158.717 181.997 160.638 181.07 162.065C180.367 163.139 179.116 163.624 177.933 163.389C177.549 163.313 177.172 163.161 176.828 162.93Z" fill="url(#paint16_linear_1_100)"/>
<path d="M31.2949 140.686C30.9514 139.007 32.0187 137.377 33.6743 137.038C35.3299 136.7 36.9504 137.786 37.2939 139.465C37.6378 141.142 36.5701 142.775 34.9149 143.111C34.5093 143.193 34.1039 143.191 33.7204 143.115C32.5422 142.881 31.5527 141.951 31.2949 140.686ZM41.292 138.649C40.948 136.972 42.0133 135.339 43.6689 135C45.3265 134.665 46.9445 135.751 47.2885 137.427C47.6319 139.106 46.5672 140.737 44.9091 141.075C44.5034 141.158 44.098 141.156 43.717 141.08C42.5363 140.846 41.5493 139.916 41.292 138.649ZM51.2861 136.613C50.9422 134.937 52.0074 133.303 53.6655 132.965C55.3211 132.627 56.9416 133.713 57.2851 135.392C57.6266 137.068 56.5613 138.702 54.9057 139.04C54.5001 139.123 54.0951 139.118 53.7116 139.042C52.5335 138.808 51.5439 137.878 51.2861 136.613Z" fill="url(#paint17_linear_1_100)"/>
<path d="M185.47 108.625C185.126 106.948 186.191 105.315 187.847 104.977C189.505 104.638 191.122 105.727 191.469 107.404C191.813 109.081 190.745 110.713 189.09 111.052C188.684 111.134 188.279 111.13 187.895 111.054C186.717 110.82 185.727 109.893 185.47 108.625ZM195.464 106.59C195.121 104.91 196.188 103.28 197.843 102.942C199.499 102.603 201.12 103.69 201.464 105.366C201.807 107.045 200.74 108.676 199.084 109.014C198.678 109.096 198.273 109.095 197.89 109.019C196.711 108.785 195.722 107.855 195.464 106.59ZM205.461 104.552C205.117 102.875 206.182 101.242 207.838 100.904C209.496 100.566 211.114 101.654 211.458 103.331C211.802 105.007 210.736 106.641 209.078 106.979C208.673 107.061 208.268 107.057 207.887 106.981C206.706 106.747 205.718 105.82 205.461 104.552Z" fill="url(#paint18_linear_1_100)"/>
<path d="M157.43 66.4862C156.014 65.5355 155.62 63.6097 156.549 62.179C157.48 60.7514 159.382 60.3653 160.798 61.3135C162.216 62.2647 162.608 64.1901 161.68 65.6182C160.979 66.6963 159.722 67.1843 158.539 66.9491C158.152 66.8722 157.777 66.7186 157.43 66.4862ZM163.046 57.8655C161.628 56.9143 161.236 54.9865 162.165 53.5583C163.096 52.1307 164.997 51.7416 166.412 52.6898C167.83 53.641 168.222 55.5689 167.294 56.997C166.592 58.0751 165.336 58.5605 164.153 58.3254C163.769 58.249 163.391 58.0974 163.046 57.8655ZM168.66 49.2443C167.242 48.2931 166.85 46.3652 167.779 44.9371C168.711 43.507 170.613 43.1209 172.029 44.0691C173.444 45.0198 173.839 46.9456 172.91 48.3763C172.206 49.4539 170.952 49.9399 169.767 49.7042C169.382 49.6278 169.007 49.4742 168.66 49.2443Z" fill="url(#paint19_linear_1_100)"/>
<defs>
<linearGradient id="paint0_linear_1_100" x1="86.626" y1="142.603" x2="120.326" y2="167.977" gradientUnits="userSpaceOnUse">
<stop stop-color="#ED7868"/>
<stop offset="1" stop-color="#74B6B1"/>
</linearGradient>
<linearGradient id="paint1_linear_1_100" x1="127.029" y1="150.531" x2="160.729" y2="175.905" gradientUnits="userSpaceOnUse">
<stop stop-color="#ED7868"/>
<stop offset="1" stop-color="#74B6B1"/>
</linearGradient>
<linearGradient id="paint2_linear_1_100" x1="143.191" y1="83.1854" x2="179.575" y2="119.917" gradientUnits="userSpaceOnUse">
<stop stop-color="#ED7868"/>
<stop offset="1" stop-color="#74B6B1"/>
</linearGradient>
<linearGradient id="paint3_linear_1_100" x1="79.6455" y1="49.7556" x2="103.566" y2="83.7094" gradientUnits="userSpaceOnUse">
<stop stop-color="#ED7868"/>
<stop offset="1" stop-color="#74B6B1"/>
</linearGradient>
<linearGradient id="paint4_linear_1_100" x1="106.953" y1="57.0683" x2="108.097" y2="71.1523" gradientUnits="userSpaceOnUse">
<stop stop-color="#ED7868"/>
<stop offset="1" stop-color="#74B6B1"/>
</linearGradient>
<linearGradient id="paint5_linear_1_100" x1="81.1965" y1="84.0665" x2="105.44" y2="101.608" gradientUnits="userSpaceOnUse">
<stop stop-color="#ED7868"/>
<stop offset="1" stop-color="#74B6B1"/>
</linearGradient>
<linearGradient id="paint6_linear_1_100" x1="138.004" y1="25.1944" x2="142.194" y2="26.9803" gradientUnits="userSpaceOnUse">
<stop stop-color="#ED7868"/>
<stop offset="1" stop-color="#74B6B1"/>
</linearGradient>
<linearGradient id="paint7_linear_1_100" x1="102.706" y1="210.848" x2="106.896" y2="212.634" gradientUnits="userSpaceOnUse">
<stop stop-color="#ED7868"/>
<stop offset="1" stop-color="#74B6B1"/>
</linearGradient>
<linearGradient id="paint8_linear_1_100" x1="25.5488" y1="102.498" x2="25.7201" y2="107.173" gradientUnits="userSpaceOnUse">
<stop stop-color="#ED7868"/>
<stop offset="1" stop-color="#74B6B1"/>
</linearGradient>
<linearGradient id="paint9_linear_1_100" x1="208.241" y1="138.367" x2="208.412" y2="143.043" gradientUnits="userSpaceOnUse">
<stop stop-color="#ED7868"/>
<stop offset="1" stop-color="#74B6B1"/>
</linearGradient>
<linearGradient id="paint10_linear_1_100" x1="39.7504" y1="176.427" x2="43.2246" y2="179.581" gradientUnits="userSpaceOnUse">
<stop stop-color="#ED7868"/>
<stop offset="1" stop-color="#74B6B1"/>
</linearGradient>
<linearGradient id="paint11_linear_1_100" x1="193.893" y1="70.5165" x2="197.367" y2="73.671" gradientUnits="userSpaceOnUse">
<stop stop-color="#ED7868"/>
<stop offset="1" stop-color="#74B6B1"/>
</linearGradient>
<linearGradient id="paint12_linear_1_100" x1="169.705" y1="197.601" x2="173.902" y2="195.959" gradientUnits="userSpaceOnUse">
<stop stop-color="#ED7868"/>
<stop offset="1" stop-color="#74B6B1"/>
</linearGradient>
<linearGradient id="paint13_linear_1_100" x1="65.4843" y1="40.9594" x2="69.681" y2="39.3183" gradientUnits="userSpaceOnUse">
<stop stop-color="#ED7868"/>
<stop offset="1" stop-color="#74B6B1"/>
</linearGradient>
<linearGradient id="paint14_linear_1_100" x1="103.692" y1="37.7263" x2="114.584" y2="46.553" gradientUnits="userSpaceOnUse">
<stop stop-color="#ED7868"/>
<stop offset="1" stop-color="#74B6B1"/>
</linearGradient>
<linearGradient id="paint15_linear_1_100" x1="51.0436" y1="73.9271" x2="55.69" y2="87.423" gradientUnits="userSpaceOnUse">
<stop stop-color="#ED7868"/>
<stop offset="1" stop-color="#74B6B1"/>
</linearGradient>
<linearGradient id="paint16_linear_1_100" x1="182.37" y1="162.043" x2="187.016" y2="175.539" gradientUnits="userSpaceOnUse">
<stop stop-color="#ED7868"/>
<stop offset="1" stop-color="#74B6B1"/>
</linearGradient>
<linearGradient id="paint17_linear_1_100" x1="39.6192" y1="134.015" x2="44.2661" y2="147.512" gradientUnits="userSpaceOnUse">
<stop stop-color="#ED7868"/>
<stop offset="1" stop-color="#74B6B1"/>
</linearGradient>
<linearGradient id="paint18_linear_1_100" x1="193.794" y1="101.954" x2="198.44" y2="115.45" gradientUnits="userSpaceOnUse">
<stop stop-color="#ED7868"/>
<stop offset="1" stop-color="#74B6B1"/>
</linearGradient>
<linearGradient id="paint19_linear_1_100" x1="162.816" y1="49.3328" x2="173.708" y2="58.1586" gradientUnits="userSpaceOnUse">
<stop stop-color="#ED7868"/>
<stop offset="1" stop-color="#74B6B1"/>
</linearGradient>
</defs>
</svg>
