<svg width="60" height="92" viewBox="0 0 60 92" fill="none" xmlns="http://www.w3.org/2000/svg">
<path d="M46.4998 3.80547C43.1832 0.422346 37.6595 -0.630314 29.587 0.574573C29.0814 0.647555 28.5896 0.738114 28.1095 0.836471C25.5429 1.36238 23.2112 2.23824 21.1693 3.4324C20.4574 3.84368 19.9506 4.50895 19.7168 5.26119C18.4503 4.51013 17.1413 3.90047 15.6996 3.83861C15.2243 3.71141 14.7222 3.702 14.2324 3.80237C14.1443 3.82043 14.0659 3.83649 13.9797 3.86435C6.80178 5.94756 2.54082 9.01529 0.958458 13.2491C-0.546495 17.2629 0.513214 21.9863 4.19175 27.6839C9.93478 36.5822 14.2575 47.0679 14.704 53.1827C15.2928 61.1875 15.9273 68.0702 16.6085 73.6368C17.1613 78.1782 17.7393 81.7958 18.3104 84.3839C18.679 86.0335 19.0497 87.2947 19.4602 88.2518C20.3248 90.2795 21.6008 91.3757 23.2508 91.5072C23.5823 91.5311 23.9156 91.5139 24.2389 91.4476C27.0309 90.8756 27.7754 87.7832 28.4509 83.8066C28.974 80.78 29.4474 76.7633 29.9569 72.5247C30.5325 67.7112 31.1269 62.7407 31.8389 58.5934C32.2551 56.191 32.6317 54.5418 32.95 53.4048C33.6898 54.325 34.6846 55.6932 36.0122 57.7383C38.2979 61.2714 40.7991 65.6076 43.2213 69.8069C45.3588 73.5132 47.3718 77.0104 49.043 79.5874C51.2379 82.9758 53.1287 85.5282 55.9207 84.9561C56.244 84.8898 56.5572 84.7746 56.8526 84.6222C58.3277 83.8504 59.0718 82.3505 59.0575 80.1384C59.0487 79.099 58.9033 77.7916 58.5935 76.1299C58.1105 73.5238 57.2093 69.9725 55.9315 65.5795C54.3706 60.2034 52.2471 53.6258 49.6382 46.0248C47.6439 40.2271 47.4944 28.8863 49.2751 18.4464C50.4219 11.6886 49.511 6.8939 46.4782 3.7997L46.4998 3.80547ZM46.1013 17.9024C44.3704 28.0871 44.2274 40.1922 46.5877 47.0786C48.9578 53.9629 57.9545 80.3848 55.3623 81.7326C55.3329 81.7386 55.3055 81.7544 55.2761 81.7604C52.4548 82.3385 36.9754 48.6398 31.9579 48.4634C27.412 50.5891 26.4255 87.6719 23.6139 88.248C23.5846 88.254 23.5551 88.26 23.5237 88.2562C20.6103 88.0365 18.4908 60.2056 17.9624 52.9438C17.434 45.6821 12.5397 34.5989 6.935 25.9275C1.50208 17.4964 1.60602 10.8299 14.9043 6.98221C14.9048 7.08419 14.8973 7.14699 14.8973 7.14699C14.9267 7.14096 14.9463 7.13695 14.9757 7.13093C18.2379 6.4625 22.4007 13.3777 29.895 11.8421C29.9538 11.83 30.0125 11.818 30.0615 11.808C37.7179 10.1167 38.9396 6.7632 34.1671 7.38382C29.3945 8.00444 27.5846 8.48757 22.826 6.23695C24.4375 5.28407 26.3912 4.50608 28.7717 4.01831C29.193 3.932 29.6358 3.85149 30.0826 3.79055C44.9085 1.56937 47.844 7.72544 46.1131 17.9102L46.1013 17.9024Z" fill="url(#paint0_linear_1_58)"/>
<defs>
<linearGradient id="paint0_linear_1_58" x1="48.0864" y1="2.35752" x2="19.0448" y2="82.3143" gradientUnits="userSpaceOnUse">
<stop stop-color="#ED7868"/>
<stop offset="1" stop-color="#74B6B1"/>
</linearGradient>
</defs>
</svg>
