<svg width="112" height="120" viewBox="0 0 112 120" fill="none" xmlns="http://www.w3.org/2000/svg">
<path d="M79.995 118.083C79.7929 118.043 79.5907 118.004 79.4024 117.956C77.5195 117.477 75.8829 116.354 74.7472 114.745L46.0316 73.9257C42.6465 69.1037 41.0873 63.036 41.6572 56.8489C42.0421 52.6429 40.9397 48.8608 38.2373 45.2499L21.9512 22.1041C21.2428 21.0869 20.9649 19.8608 21.1691 18.6392C21.3734 17.4177 22.0455 16.3504 23.0627 15.642L25.275 14.0817C26.2811 13.3705 27.5045 13.1036 28.726 13.3079C29.9558 13.526 31.0121 14.1953 31.7315 15.2153L32.1395 15.7906L40.9814 9.30012C41.7069 8.7652 42.7291 8.91883 43.2501 9.65258C43.785 10.3781 43.6203 11.3974 42.8977 11.9213L33.9974 18.4559L35.4777 20.5653L44.3779 14.0307C45.1034 13.4958 46.1256 13.6494 46.6466 14.3832C47.1815 15.1086 47.0169 16.128 46.2942 16.6518L37.3384 23.2195L38.9151 25.4596L47.9766 18.8009C48.7021 18.2659 49.7132 18.4167 50.2453 19.1533C50.7802 19.8788 50.6155 20.8982 49.8929 21.422L40.7758 28.1138L42.3802 30.3845L51.6418 23.5879C52.3673 23.053 53.3895 23.2066 53.9105 23.9404C54.4454 24.6659 54.2807 25.6852 53.558 26.2091L44.2381 33.0497L45.8424 35.3204L55.2931 28.3832C56.0186 27.8483 57.0296 27.9991 57.5617 28.7357C58.0967 29.4612 57.932 30.4805 57.2093 31.0044L47.7003 37.9857L47.9594 38.3581C50.6665 42.1824 52.2281 46.1991 52.8942 51.0023C53.4092 54.7295 54.7428 58.2049 56.7524 61.062L87.9544 105.414C90.5346 109.088 89.6586 114.159 86.0093 116.734C84.2417 117.983 82.0807 118.46 79.9479 118.083L79.995 118.083ZM85.3445 107.285L54.1425 62.9339C51.8408 59.6488 50.304 55.6738 49.7271 51.4475C49.1368 47.1351 47.7864 43.6791 45.3578 40.2439L29.0717 17.0982C28.8815 16.8258 28.5995 16.6362 28.2783 16.5546C28.2451 16.5461 28.2119 16.5377 28.1787 16.5293C27.8186 16.4614 27.4552 16.5459 27.1661 16.7554L24.9538 18.3157C24.6537 18.5224 24.4556 18.8376 24.3988 19.2005C24.342 19.5634 24.4237 19.9379 24.6304 20.238L40.8888 43.3532C44.0655 47.6034 45.3812 52.1236 44.9127 57.1691C44.4068 62.5942 45.7639 67.8796 48.7079 72.0707L77.4235 112.89C78.1788 113.954 79.3013 114.688 80.5783 114.906C81.8524 115.135 83.1396 114.849 84.2012 114.105C86.3858 112.561 86.9102 109.523 85.3582 107.324L85.3445 107.285Z" fill="url(#paint0_linear_1_70)"/>
<path d="M47.9386 6.60996L61.1032 24.871C61.6242 25.6048 61.4623 26.613 60.7368 27.148C60.331 27.4457 59.829 27.5186 59.386 27.406C59.0316 27.316 58.697 27.1013 58.471 26.7844L45.3064 8.52339C44.7854 7.78965 44.9473 6.78136 45.6727 6.24645C46.3954 5.72261 47.4148 5.88729 47.9386 6.60996Z" fill="url(#paint1_linear_1_70)"/>
<defs>
<linearGradient id="paint0_linear_1_70" x1="58.2179" y1="11.4703" x2="54.1206" y2="106.136" gradientUnits="userSpaceOnUse">
<stop stop-color="#ED7868"/>
<stop offset="1" stop-color="#74B6B1"/>
</linearGradient>
<linearGradient id="paint1_linear_1_70" x1="53.1506" y1="7.25445" x2="51.6768" y2="24.7275" gradientUnits="userSpaceOnUse">
<stop stop-color="#ED7868"/>
<stop offset="1" stop-color="#74B6B1"/>
</linearGradient>
</defs>
</svg>
